<svg id="visual" viewBox="0 0 900 600" width="900" height="600" xmlns="http://www.w3.org/2000/svg" xmlns:xlink="http://www.w3.org/1999/xlink" version="1.1"><rect x="0" y="0" width="900" height="600" fill="#1e293b"></rect><defs><linearGradient id="grad1_0" x1="33.3%" y1="0%" x2="100%" y2="100%"><stop offset="20%" stop-color="#1e293b" stop-opacity="1"></stop><stop offset="80%" stop-color="#1e293b" stop-opacity="1"></stop></linearGradient></defs><defs><linearGradient id="grad2_0" x1="0%" y1="0%" x2="66.7%" y2="100%"><stop offset="20%" stop-color="#1e293b" stop-opacity="1"></stop><stop offset="80%" stop-color="#1e293b" stop-opacity="1"></stop></linearGradient></defs><g transform="translate(900, 0)"><path d="M0 270.4C-20.8 259.6 -41.6 248.9 -65.7 245.3C-89.9 241.8 -117.3 245.6 -134 232.1C-150.7 218.6 -156.5 188 -167.6 167.6C-178.6 147.2 -194.9 137 -213 123C-231.2 109 -251.3 91.1 -261.2 70C-271.1 48.8 -270.8 24.4 -270.4 0L0 0Z" fill="#80ea6e"></path></g><g transform="translate(0, 600)"><path d="M0 -270.4C24.1 -268 48.1 -265.6 68.6 -256C89.1 -246.4 106 -229.7 126.5 -219.1C147 -208.6 171.1 -204.2 191.2 -191.2C211.3 -178.2 227.3 -156.7 230.4 -133C233.4 -109.3 223.4 -83.6 228 -61.1C232.5 -38.6 251.4 -19.3 270.4 0L0 0Z" fill="#80ea6e"></path></g></svg>