<svg id="visual" viewBox="0 0 900 600" width="900" height="600" xmlns="http://www.w3.org/2000/svg" xmlns:xlink="http://www.w3.org/1999/xlink" version="1.1">
	<path d="M0 121L13.7 115C27.3 109 54.7 97 82 103C109.3 109 136.7 133 163.8 137C191 141 218 125 245.2 119C272.3 113 299.7 117 327 109C354.3 101 381.7 81 409 75C436.3 69 463.7 77 491 90C518.3 103 545.7 121 573 127C600.3 133 627.7 127 654.8 116C682 105 709 89 736.2 87C763.3 85 790.7 97 818 97C845.3 97 872.7 85 886.3 79L900 73L900 0L886.3 0C872.7 0 845.3 0 818 0C790.7 0 763.3 0 736.2 0C709 0 682 0 654.8 0C627.7 0 600.3 0 573 0C545.7 0 518.3 0 491 0C463.7 0 436.3 0 409 0C381.7 0 354.3 0 327 0C299.7 0 272.3 0 245.2 0C218 0 191 0 163.8 0C136.7 0 109.3 0 82 0C54.7 0 27.3 0 13.7 0L0 0Z" fill="#3d4b64">
	</path>
	<path d="M0 331L13.7 333C27.3 335 54.7 339 82 328C109.3 317 136.7 291 163.8 270C191 249 218 233 245.2 228C272.3 223 299.7 229 327 229C354.3 229 381.7 223 409 219C436.3 215 463.7 213 491 237C518.3 261 545.7 311 573 312C600.3 313 627.7 265 654.8 248C682 231 709 245 736.2 262C763.3 279 790.7 299 818 304C845.3 309 872.7 299 886.3 294L900 289L900 71L886.3 77C872.7 83 845.3 95 818 95C790.7 95 763.3 83 736.2 85C709 87 682 103 654.8 114C627.7 125 600.3 131 573 125C545.7 119 518.3 101 491 88C463.7 75 436.3 67 409 73C381.7 79 354.3 99 327 107C299.7 115 272.3 111 245.2 117C218 123 191 139 163.8 135C136.7 131 109.3 107 82 101C54.7 95 27.3 107 13.7 113L0 119Z" fill="#2d3a4f">
	</path>
	<path d="M0 451L13.7 452C27.3 453 54.7 455 82 453C109.3 451 136.7 445 163.8 439C191 433 218 427 245.2 422C272.3 417 299.7 413 327 422C354.3 431 381.7 453 409 458C436.3 463 463.7 451 491 449C518.3 447 545.7 455 573 453C600.3 451 627.7 439 654.8 437C682 435 709 443 736.2 450C763.3 457 790.7 463 818 462C845.3 461 872.7 453 886.3 449L900 445L900 287L886.3 292C872.7 297 845.3 307 818 302C790.7 297 763.3 277 736.2 260C709 243 682 229 654.8 246C627.7 263 600.3 311 573 310C545.7 309 518.3 259 491 235C463.7 211 436.3 213 409 217C381.7 221 354.3 227 327 227C299.7 227 272.3 221 245.2 226C218 231 191 247 163.8 268C136.7 289 109.3 315 82 326C54.7 337 27.3 333 13.7 331L0 329Z" fill="#1e293b">
	</path>
	<path d="M0 511L13.7 513C27.3 515 54.7 519 82 528C109.3 537 136.7 551 163.8 547C191 543 218 521 245.2 510C272.3 499 299.7 499 327 508C354.3 517 381.7 535 409 538C436.3 541 463.7 529 491 522C518.3 515 545.7 513 573 520C600.3 527 627.7 543 654.8 546C682 549 709 539 736.2 533C763.3 527 790.7 525 818 524C845.3 523 872.7 523 886.3 523L900 523L900 443L886.3 447C872.7 451 845.3 459 818 460C790.7 461 763.3 455 736.2 448C709 441 682 433 654.8 435C627.7 437 600.3 449 573 451C545.7 453 518.3 445 491 447C463.7 449 436.3 461 409 456C381.7 451 354.3 429 327 420C299.7 411 272.3 415 245.2 420C218 425 191 431 163.8 437C136.7 443 109.3 449 82 451C54.7 453 27.3 451 13.7 450L0 449Z" fill="#1b2433">
	</path>
	<path d="M0 601L13.7 601C27.3 601 54.7 601 82 601C109.3 601 136.7 601 163.8 601C191 601 218 601 245.2 601C272.3 601 299.7 601 327 601C354.3 601 381.7 601 409 601C436.3 601 463.7 601 491 601C518.3 601 545.7 601 573 601C600.3 601 627.7 601 654.8 601C682 601 709 601 736.2 601C763.3 601 790.7 601 818 601C845.3 601 872.7 601 886.3 601L900 601L900 521L886.3 521C872.7 521 845.3 521 818 522C790.7 523 763.3 525 736.2 531C709 537 682 547 654.8 544C627.7 541 600.3 525 573 518C545.7 511 518.3 513 491 520C463.7 527 436.3 539 409 536C381.7 533 354.3 515 327 506C299.7 497 272.3 497 245.2 508C218 519 191 541 163.8 545C136.7 549 109.3 535 82 526C54.7 517 27.3 513 13.7 511L0 509Z" fill="#18202c">
	</path>
</svg>
